<svg width="92" height="13" viewBox="0 0 92 13" fill="none" xmlns="http://www.w3.org/2000/svg">
<path d="M0 12.5689V1.22893H6.71738V2.8748H1.64588V6.07205H5.77238V7.7258H1.64588V12.5689H0Z" fill="white"/>
<path d="M8.29397 2.67005V1.07143H9.93985V2.67005H8.29397ZM8.29397 12.5689V4.06393H9.93985V12.5689H8.29397Z" fill="white"/>
<path d="M18.2739 12.5689V8.3873C18.2739 8.05655 18.2451 7.71793 18.1873 7.37143C18.1348 7.01968 18.0298 6.69418 17.8723 6.39493C17.7201 6.09568 17.5022 5.85418 17.2187 5.67043C16.9404 5.48668 16.5756 5.3948 16.1241 5.3948C15.8301 5.3948 15.5518 5.44468 15.2893 5.54443C15.0268 5.63893 14.7958 5.7938 14.5963 6.00905C14.4021 6.2243 14.2472 6.5078 14.1317 6.85955C14.0214 7.2113 13.9663 7.63918 13.9663 8.14318L12.9426 7.7573C12.9426 6.98555 13.0869 6.30568 13.3757 5.71768C13.6644 5.12443 14.0792 4.66243 14.6199 4.33168C15.1607 4.00093 15.8143 3.83555 16.5808 3.83555C17.1688 3.83555 17.6623 3.93005 18.0613 4.11905C18.4603 4.30805 18.7832 4.55743 19.0299 4.86718C19.2819 5.17168 19.4736 5.50505 19.6048 5.8673C19.7361 6.22955 19.8253 6.58393 19.8726 6.93043C19.9198 7.27693 19.9434 7.58143 19.9434 7.84393V12.5689H18.2739ZM12.2968 12.5689V4.06393H13.7694V6.52093H13.9663V12.5689H12.2968Z" fill="white"/>
<path d="M24.3965 12.8052C23.7665 12.8052 23.2389 12.6897 22.8136 12.4587C22.3884 12.2224 22.0655 11.9127 21.845 11.5294C21.6298 11.1409 21.5221 10.7157 21.5221 10.2537C21.5221 9.82318 21.5983 9.44518 21.7505 9.11968C21.9028 8.79418 22.1285 8.51855 22.4278 8.2928C22.727 8.0618 23.0945 7.87543 23.5303 7.73368C23.9083 7.62343 24.3361 7.5263 24.8139 7.4423C25.2916 7.3583 25.793 7.27955 26.318 7.20605C26.8483 7.13255 27.3733 7.05905 27.893 6.98555L27.2945 7.3163C27.305 6.64955 27.1633 6.15605 26.8693 5.8358C26.5805 5.5103 26.0818 5.34755 25.373 5.34755C24.9268 5.34755 24.5173 5.45255 24.1445 5.66255C23.7718 5.8673 23.5119 6.20855 23.3649 6.6863L21.8293 6.2138C22.0393 5.48405 22.4383 4.90393 23.0263 4.47343C23.6195 4.04293 24.407 3.82768 25.3888 3.82768C26.15 3.82768 26.8115 3.95893 27.3733 4.22143C27.9403 4.47868 28.355 4.88818 28.6175 5.44993C28.754 5.72818 28.838 6.02218 28.8695 6.33193C28.901 6.64168 28.9168 6.97505 28.9168 7.33205V12.5689H27.4599V10.6238L27.7434 10.8758C27.3916 11.5268 26.9428 12.0124 26.3968 12.3327C25.856 12.6477 25.1893 12.8052 24.3965 12.8052ZM24.6879 11.4586C25.1551 11.4586 25.5568 11.3772 25.8928 11.2144C26.2288 11.0464 26.4991 10.8338 26.7039 10.5766C26.9086 10.3193 27.0425 10.0516 27.1055 9.7733C27.1948 9.5213 27.2446 9.2378 27.2551 8.9228C27.2709 8.6078 27.2788 8.3558 27.2788 8.1668L27.8143 8.36368C27.2945 8.44243 26.822 8.5133 26.3968 8.5763C25.9715 8.6393 25.5856 8.7023 25.2391 8.7653C24.8979 8.82305 24.5934 8.89393 24.3256 8.97793C24.0999 9.05668 23.8978 9.15118 23.7193 9.26143C23.546 9.37168 23.4069 9.50555 23.3019 9.66305C23.2021 9.82055 23.1523 10.0122 23.1523 10.2379C23.1523 10.4584 23.2074 10.6632 23.3176 10.8522C23.4279 11.0359 23.5959 11.1829 23.8216 11.2932C24.0474 11.4034 24.3361 11.4586 24.6879 11.4586Z" fill="white"/>
<path d="M36.9309 12.5689V8.3873C36.9309 8.05655 36.902 7.71793 36.8443 7.37143C36.7918 7.01968 36.6868 6.69418 36.5293 6.39493C36.377 6.09568 36.1592 5.85418 35.8757 5.67043C35.5974 5.48668 35.2325 5.3948 34.781 5.3948C34.487 5.3948 34.2088 5.44468 33.9463 5.54443C33.6838 5.63893 33.4528 5.7938 33.2533 6.00905C33.059 6.2243 32.9042 6.5078 32.7887 6.85955C32.6784 7.2113 32.6233 7.63918 32.6233 8.14318L31.5995 7.7573C31.5995 6.98555 31.7439 6.30568 32.0327 5.71768C32.3214 5.12443 32.7362 4.66243 33.2769 4.33168C33.8177 4.00093 34.4713 3.83555 35.2378 3.83555C35.8258 3.83555 36.3193 3.93005 36.7183 4.11905C37.1173 4.30805 37.4402 4.55743 37.6869 4.86718C37.9389 5.17168 38.1305 5.50505 38.2618 5.8673C38.393 6.22955 38.4823 6.58393 38.5295 6.93043C38.5768 7.27693 38.6004 7.58143 38.6004 7.84393V12.5689H36.9309ZM30.9538 12.5689V4.06393H32.4264V6.52093H32.6233V12.5689H30.9538Z" fill="white"/>
<path d="M44.1822 12.8052C43.3107 12.8052 42.5704 12.6109 41.9614 12.2224C41.3524 11.8339 40.8852 11.3011 40.5597 10.6238C40.2394 9.94655 40.0767 9.17743 40.0714 8.31643C40.0767 7.43968 40.2447 6.6653 40.5754 5.9933C40.9062 5.31605 41.3787 4.7858 41.9929 4.40255C42.6072 4.0193 43.3448 3.82768 44.2058 3.82768C45.1351 3.82768 45.9278 4.05868 46.5841 4.52068C47.2456 4.98268 47.6813 5.6153 47.8913 6.41855L46.2533 6.89105C46.0906 6.4133 45.8228 6.04318 45.4501 5.78068C45.0826 5.51293 44.6599 5.37905 44.1822 5.37905C43.6414 5.37905 43.1978 5.50768 42.8513 5.76493C42.5048 6.01693 42.2476 6.36343 42.0796 6.80443C41.9116 7.24543 41.8249 7.74943 41.8197 8.31643C41.8249 9.19318 42.0244 9.90193 42.4182 10.4427C42.8172 10.9834 43.4052 11.2538 44.1822 11.2538C44.7124 11.2538 45.1403 11.1331 45.4658 10.8916C45.7966 10.6448 46.0486 10.2931 46.2218 9.8363L47.8913 10.2301C47.6131 11.0596 47.1537 11.6974 46.5132 12.1437C45.8727 12.5847 45.0957 12.8052 44.1822 12.8052Z" fill="white"/>
<path d="M53.037 12.8052C52.1918 12.8052 51.4489 12.6214 50.8084 12.2539C50.1731 11.8812 49.677 11.3641 49.32 10.7026C48.9683 10.0358 48.7924 9.26405 48.7924 8.3873C48.7924 7.45805 48.9656 6.65218 49.3121 5.96968C49.6639 5.28718 50.1521 4.75955 50.7769 4.3868C51.4016 4.01405 52.1288 3.82768 52.9583 3.82768C53.8245 3.82768 54.5621 4.0298 55.1711 4.43405C55.7801 4.83305 56.2343 5.40268 56.5335 6.14293C56.838 6.88318 56.9588 7.76255 56.8958 8.78105H55.2499V8.18255C55.2394 7.19555 55.0504 6.4658 54.6829 5.9933C54.3206 5.5208 53.7668 5.28455 53.0213 5.28455C52.197 5.28455 51.5775 5.54443 51.1628 6.06418C50.748 6.58393 50.5406 7.33468 50.5406 8.31643C50.5406 9.25093 50.748 9.97543 51.1628 10.4899C51.5775 10.9992 52.176 11.2538 52.9583 11.2538C53.4728 11.2538 53.9164 11.1383 54.2891 10.9073C54.6671 10.6711 54.9611 10.3351 55.1711 9.8993L56.7855 10.4112C56.4548 11.1724 55.9534 11.7631 55.2814 12.1831C54.6094 12.5978 53.8613 12.8052 53.037 12.8052ZM50.0051 8.78105V7.49743H56.0768V8.78105H50.0051Z" fill="white"/>
<path d="M58.6626 12.5689V1.22893H65.38V2.8748H60.3085V6.07205H64.435V7.7258H60.3085V12.5689H58.6626Z" fill="white"/>
<path d="M66.9566 12.5689V0.992676H68.6024V12.5689H66.9566Z" fill="white"/>
<path d="M74.6607 12.8052C73.8102 12.8052 73.0725 12.6136 72.4478 12.2303C71.823 11.8471 71.34 11.3194 70.9988 10.6474C70.6628 9.97018 70.4948 9.19055 70.4948 8.30855C70.4948 7.4213 70.668 6.64168 71.0145 5.96968C71.361 5.29243 71.8467 4.76743 72.4714 4.39468C73.0962 4.01668 73.8259 3.82768 74.6607 3.82768C75.5112 3.82768 76.2488 4.0193 76.8735 4.40255C77.4983 4.7858 77.9813 5.31343 78.3225 5.98543C78.6638 6.65743 78.8344 7.4318 78.8344 8.30855C78.8344 9.1958 78.6612 9.97805 78.3147 10.6553C77.9734 11.3273 77.4904 11.8549 76.8657 12.2382C76.2409 12.6162 75.5059 12.8052 74.6607 12.8052ZM74.6607 11.2538C75.4744 11.2538 76.0808 10.9808 76.4798 10.4348C76.884 9.88355 77.0862 9.1748 77.0862 8.30855C77.0862 7.4213 76.8814 6.71255 76.4719 6.1823C76.0677 5.6468 75.4639 5.37905 74.6607 5.37905C74.1094 5.37905 73.6553 5.50505 73.2983 5.75705C72.9413 6.0038 72.6762 6.34768 72.5029 6.78868C72.3297 7.22443 72.243 7.73105 72.243 8.30855C72.243 9.20105 72.4478 9.91505 72.8573 10.4506C73.2668 10.9861 73.8679 11.2538 74.6607 11.2538Z" fill="white"/>
<path d="M82.0686 12.5689L79.4698 4.05605L81.0999 4.06393L82.8797 9.8993L84.6752 4.06393H86.0927L87.8882 9.8993L89.6679 4.06393H91.2902L88.6914 12.5689H87.3684L85.384 6.41068L83.3916 12.5689H82.0686Z" fill="white"/>
</svg>
